<?xml version="1.0" encoding="UTF-8" ?>
<!DOCTYPE svg PUBLIC "-//W3C//DTD SVG 1.1//EN" "http://www.w3.org/Graphics/SVG/1.1/DTD/svg11.dtd">
<svg width="1359pt" height="459pt" viewBox="0 0 1359 459" version="1.1" xmlns="http://www.w3.org/2000/svg">
<g id="#ffffffff">
</g>
<g id="#1c6eb7ff">
<path fill="#1c6eb7" opacity="1.00" d=" M 166.32 0.00 L 177.47 0.00 C 198.67 2.96 217.52 18.40 224.63 38.57 C 231.22 59.67 237.55 80.85 243.79 102.06 C 245.07 107.27 247.43 112.12 248.82 117.30 C 250.05 121.59 250.54 126.05 251.83 130.32 C 263.39 169.17 274.35 208.19 286.35 246.90 C 288.64 254.61 291.51 262.16 293.16 270.04 C 294.53 276.00 296.11 281.92 298.15 287.68 C 307.40 316.35 314.74 345.58 323.85 374.28 C 333.10 401.51 339.44 429.61 348.17 456.99 C 339.78 456.61 331.45 457.75 323.07 457.50 C 310.72 457.45 298.36 457.60 286.02 457.43 C 280.71 456.67 275.35 457.23 270.03 456.89 C 259.32 420.62 248.11 384.47 238.10 348.00 C 231.73 348.01 225.36 348.15 219.01 347.51 C 194.36 347.49 169.70 347.50 145.04 347.51 C 132.02 348.84 118.85 347.08 105.86 348.56 C 96.70 384.17 84.47 418.89 75.28 454.49 C 74.88 455.64 74.77 457.76 73.01 457.47 C 53.33 457.56 33.65 457.46 13.97 457.52 C 9.31 457.32 4.67 456.75 0.00 457.01 L 0.00 456.31 C 3.71 438.54 11.22 421.83 14.86 404.05 C 31.62 346.71 48.59 289.44 64.89 231.97 C 73.58 203.66 80.96 174.97 89.79 146.70 C 93.16 135.73 95.72 124.54 98.60 113.45 C 104.89 95.21 108.49 76.17 114.89 57.96 C 117.89 48.29 120.47 38.36 125.37 29.43 C 133.65 14.10 149.44 3.52 166.32 0.00 M 163.76 149.11 C 159.64 162.41 156.11 175.88 151.91 189.15 C 147.11 205.08 142.09 220.96 138.22 237.15 C 134.79 250.45 127.48 263.20 128.56 277.31 C 148.38 278.34 168.22 275.89 188.01 277.52 C 197.40 277.15 206.99 278.57 216.13 275.80 C 212.95 262.37 208.67 249.22 204.89 235.95 C 194.18 200.40 182.89 165.00 173.95 128.95 C 173.43 128.98 172.38 129.04 171.86 129.06 C 169.11 135.72 165.32 142.01 163.76 149.11 Z" />
<path fill="#1c6eb7" opacity="1.00" d=" M 618.34 0.00 L 636.59 0.00 C 638.72 0.40 640.88 0.57 643.05 0.57 C 649.50 4.60 656.26 8.16 662.38 12.70 C 667.43 16.32 671.10 21.47 674.38 26.66 C 678.32 32.83 679.92 40.06 682.37 46.87 C 689.40 68.71 695.02 90.97 701.85 112.87 C 705.15 124.12 709.55 135.03 712.41 146.42 C 730.61 210.48 750.79 273.96 769.34 337.92 C 774.98 358.46 781.48 378.75 787.65 399.14 C 793.53 418.30 798.88 437.62 805.03 456.69 C 793.41 458.22 781.68 457.22 770.01 457.50 C 764.34 457.85 758.71 456.57 753.08 457.49 C 744.72 457.22 736.41 457.98 728.09 458.70 C 723.40 450.80 721.09 441.90 718.98 433.06 C 711.99 404.34 700.65 376.89 693.96 348.08 C 691.63 347.85 689.32 347.53 686.98 347.51 C 679.29 347.74 671.63 346.44 663.94 347.13 C 655.69 348.06 647.37 346.99 639.12 347.78 C 624.07 348.68 609.05 347.16 594.00 347.50 C 583.37 347.20 572.80 348.37 562.18 348.00 C 561.29 354.29 559.18 360.30 557.16 366.29 C 550.66 383.39 546.86 401.34 541.55 418.81 C 539.33 426.56 536.43 434.12 534.85 442.05 C 533.65 446.78 532.55 451.72 529.92 455.90 C 526.79 458.04 522.66 457.38 519.06 457.52 C 502.71 457.47 486.36 457.53 470.01 457.49 C 465.66 457.19 461.32 456.80 456.97 457.01 C 456.52 447.79 459.96 439.08 462.62 430.43 C 475.32 387.88 486.40 344.85 499.66 302.45 C 511.53 261.01 523.23 219.52 535.35 178.16 C 547.93 136.10 558.88 93.57 571.41 51.49 C 573.70 43.52 575.90 35.37 580.36 28.28 C 588.47 14.29 602.34 3.19 618.34 0.00 M 624.15 131.57 C 623.78 133.30 623.16 134.96 622.48 136.59 C 615.51 155.32 611.84 175.03 606.17 194.15 C 602.66 205.09 599.25 216.06 596.30 227.16 C 593.25 238.17 590.62 249.31 586.88 260.12 C 585.04 265.61 583.93 271.31 582.95 277.01 C 586.63 276.86 590.29 277.04 593.94 277.48 C 619.47 277.52 645.00 277.50 670.53 277.49 C 670.02 263.44 663.89 250.47 660.13 237.12 C 654.14 215.29 647.90 193.53 640.90 172.01 C 636.85 158.42 633.23 144.67 627.81 131.54 C 626.58 131.51 625.36 131.52 624.15 131.57 Z" />
<path fill="#1c6eb7" opacity="1.00" d=" M 880.38 0.00 L 923.61 0.00 C 931.98 1.28 940.51 -0.19 948.91 0.87 C 955.93 1.03 962.96 1.33 969.97 1.90 C 976.69 2.37 982.92 5.19 989.51 6.36 C 1000.00 8.34 1009.06 14.29 1018.87 18.13 C 1023.25 19.74 1026.95 22.65 1030.76 25.26 C 1042.11 33.38 1052.28 43.13 1061.14 53.90 C 1068.76 63.16 1074.39 73.83 1079.10 84.81 C 1088.87 107.77 1093.60 133.22 1090.68 158.11 C 1088.07 169.48 1084.74 180.71 1080.38 191.54 C 1076.64 200.28 1072.85 209.21 1066.70 216.57 C 1062.65 221.91 1058.84 227.42 1054.69 232.69 C 1046.00 242.85 1035.35 251.25 1023.63 257.64 C 1016.30 262.62 1008.25 266.34 1000.50 270.58 C 996.25 273.04 994.43 278.44 995.46 283.11 C 996.12 288.07 998.84 292.36 1001.71 296.33 C 1015.55 317.01 1028.13 338.50 1041.49 359.48 C 1047.59 369.33 1054.61 378.60 1060.10 388.82 C 1063.44 394.91 1067.27 400.70 1071.72 406.02 C 1080.93 423.80 1094.12 439.16 1103.23 456.99 C 1097.81 457.01 1092.38 456.82 1087.00 457.45 C 1073.00 457.58 1059.00 457.46 1045.01 457.50 C 1036.35 457.75 1027.75 456.62 1019.09 457.00 C 1010.43 442.69 1002.24 428.08 992.78 414.28 C 990.34 410.71 987.65 407.29 985.61 403.46 C 977.23 388.47 967.18 374.52 958.10 359.95 C 952.88 352.04 948.63 343.54 943.31 335.70 C 936.93 326.06 931.02 316.12 924.54 306.55 C 919.89 299.15 915.34 291.53 912.91 283.06 C 911.56 278.17 912.07 273.05 912.01 268.04 C 912.07 264.19 911.72 260.31 912.31 256.49 C 913.74 248.58 917.96 241.60 921.60 234.56 C 930.01 220.38 945.34 211.80 960.91 207.65 C 964.68 206.47 968.78 206.31 972.31 204.40 C 980.34 200.54 987.64 195.26 994.12 189.17 C 1003.92 179.01 1010.79 165.31 1010.52 150.97 C 1010.27 142.58 1011.23 134.05 1009.20 125.80 C 1006.02 112.65 997.31 101.41 986.96 92.99 C 977.65 86.03 966.88 79.98 955.00 79.50 C 933.84 79.49 912.68 79.51 891.52 79.50 C 891.54 205.28 891.39 331.07 891.59 456.85 C 885.73 457.20 879.84 456.71 874.00 457.45 C 855.12 457.63 836.24 457.59 817.39 456.82 C 817.65 434.87 817.41 412.92 817.51 390.96 C 816.77 381.34 816.73 371.64 817.49 362.01 C 817.52 348.68 817.47 335.34 817.51 322.01 C 817.02 313.67 816.57 305.31 817.00 296.96 C 817.97 280.66 817.30 264.30 817.50 247.97 C 817.50 189.65 817.50 131.32 817.50 72.99 C 817.23 62.51 818.67 51.82 822.99 42.19 C 829.23 27.25 841.45 14.94 856.18 8.28 C 864.12 5.19 871.78 0.97 880.38 0.00 Z" />
<path fill="#1c6eb7" opacity="1.00" d=" M 1132.58 0.00 L 1139.42 0.00 C 1155.36 1.66 1171.61 -0.98 1187.50 1.64 C 1187.50 132.44 1187.50 263.24 1187.50 394.04 C 1187.25 415.02 1188.07 436.04 1186.95 457.00 C 1178.27 456.62 1169.64 457.80 1160.96 457.50 C 1145.76 457.60 1130.58 457.54 1115.41 456.87 C 1115.62 305.13 1115.43 153.38 1115.51 1.64 C 1121.14 0.47 1126.92 0.83 1132.58 0.00 Z" />
<path fill="#1c6eb7" opacity="1.00" d=" M 268.23 2.39 C 291.16 3.00 314.18 1.38 337.01 3.97 C 381.98 4.04 426.96 3.97 471.94 4.01 C 477.62 3.51 483.31 3.14 488.99 2.51 C 504.72 2.52 520.58 1.85 536.11 4.80 C 538.88 5.91 538.54 9.52 538.98 11.97 C 539.02 33.96 539.00 55.94 538.99 77.93 C 532.80 79.56 526.38 79.44 520.06 80.01 C 509.37 79.79 498.65 80.48 488.00 79.49 C 472.33 79.54 456.66 79.46 441.00 79.53 C 441.01 200.68 441.00 321.83 441.00 442.98 C 440.91 447.34 441.19 451.72 440.87 456.08 C 440.68 456.27 440.28 456.64 440.08 456.83 C 424.40 457.40 408.51 456.23 392.97 458.28 C 387.01 457.76 380.98 457.82 375.02 458.35 C 372.02 457.80 368.99 457.42 365.99 456.88 C 366.01 331.26 366.00 205.64 366.00 80.03 C 362.33 80.19 358.72 79.31 355.05 79.48 C 336.36 79.72 317.63 79.02 298.98 80.01 C 288.50 80.25 278.07 79.69 267.62 79.47 C 265.49 66.07 266.79 52.48 267.01 39.01 C 265.80 26.81 266.59 14.52 268.23 2.39 Z" />
</g>
<g id="#000000ff">
<path fill="#000000" opacity="1.00" d=" M 1273.47 4.78 C 1284.88 1.34 1297.08 1.23 1308.77 3.22 C 1329.36 6.87 1347.35 22.01 1354.73 41.55 C 1357.54 48.24 1358.08 55.49 1359.00 62.60 L 1359.00 69.64 C 1358.08 80.73 1355.81 92.10 1349.55 101.52 C 1339.31 117.82 1321.06 128.22 1302.00 129.88 C 1294.26 130.12 1286.41 130.43 1278.83 128.53 C 1256.13 123.61 1236.88 104.86 1231.95 82.08 C 1230.14 72.27 1229.81 62.09 1231.61 52.25 C 1235.20 30.25 1252.32 11.41 1273.47 4.78 M 1264.37 29.44 C 1250.90 39.61 1241.93 57.22 1245.78 74.21 C 1251.16 97.53 1275.17 114.26 1298.82 112.36 C 1307.74 111.44 1316.41 108.23 1323.70 102.98 C 1338.35 92.91 1348.14 73.92 1343.30 56.13 C 1338.53 36.81 1320.62 22.71 1301.38 19.58 C 1288.40 17.51 1274.72 21.43 1264.37 29.44 Z" />
<path fill="#000000" opacity="1.00" d=" M 1263.46 142.29 C 1272.80 137.42 1283.43 135.07 1293.96 135.50 C 1304.30 135.06 1314.76 137.14 1324.14 141.56 C 1342.70 150.60 1356.45 169.44 1358.34 190.13 C 1358.56 192.61 1358.32 195.15 1359.00 197.58 L 1359.00 202.36 C 1358.12 211.18 1357.18 220.25 1353.13 228.30 C 1344.10 247.61 1324.24 261.37 1302.99 263.04 C 1292.89 264.23 1282.51 263.46 1272.81 260.35 C 1254.85 254.14 1239.74 239.64 1233.60 221.57 C 1230.06 209.87 1229.60 197.29 1231.62 185.27 C 1234.81 166.99 1247.39 151.16 1263.46 142.29 M 1285.97 153.18 C 1262.97 157.20 1243.01 179.13 1245.02 203.09 C 1248.11 229.51 1275.93 249.56 1301.91 245.19 C 1323.26 242.38 1341.96 224.32 1344.32 202.72 C 1345.38 192.76 1342.09 182.63 1336.36 174.52 C 1325.28 158.86 1305.03 149.71 1285.97 153.18 Z" />
<path fill="#000000" opacity="1.00" d=" M 1249.98 275.95 C 1257.95 271.48 1267.42 270.55 1276.34 271.54 C 1284.81 272.89 1292.64 276.94 1299.08 282.55 C 1314.36 296.62 1327.16 313.06 1341.97 327.58 C 1342.04 309.06 1341.98 290.53 1342.00 272.00 C 1346.66 272.00 1351.33 272.00 1356.00 272.00 C 1355.93 298.52 1356.13 325.05 1355.90 351.57 C 1351.39 351.46 1346.88 351.46 1342.38 351.56 C 1327.69 337.26 1314.33 321.72 1299.66 307.39 C 1294.04 302.04 1289.09 295.80 1282.22 291.97 C 1276.75 288.50 1269.89 286.98 1263.54 288.60 C 1255.83 290.77 1249.01 296.45 1246.05 303.97 C 1242.04 312.12 1245.29 322.27 1251.84 328.11 C 1258.46 333.68 1267.44 335.34 1275.86 335.44 C 1276.15 340.98 1275.92 346.53 1276.00 352.08 C 1266.41 351.26 1256.28 350.80 1247.89 345.50 C 1238.16 339.72 1231.97 329.17 1230.78 318.01 C 1230.04 309.30 1230.12 300.03 1234.19 292.06 C 1237.77 285.34 1243.15 279.43 1249.98 275.95 Z" />
<path fill="#000000" opacity="1.00" d=" M 1301.23 366.21 C 1316.89 361.74 1335.33 365.19 1346.90 377.12 C 1354.16 383.98 1357.64 393.88 1359.00 403.59 L 1359.00 413.40 C 1357.54 425.02 1352.21 436.66 1342.43 443.53 C 1335.08 449.00 1325.91 450.95 1317.00 452.10 C 1316.99 446.44 1317.00 440.77 1317.00 435.11 C 1323.77 433.90 1330.38 431.24 1335.58 426.64 C 1341.33 421.45 1345.54 413.83 1344.94 405.91 C 1342.28 391.04 1326.87 380.40 1312.10 381.69 C 1303.30 382.78 1294.90 387.62 1290.06 395.14 C 1285.73 402.00 1284.31 411.28 1288.22 418.65 C 1290.79 424.47 1295.90 428.41 1300.15 432.93 C 1298.62 437.36 1297.04 441.77 1295.78 446.28 C 1274.80 442.96 1253.95 438.83 1233.00 435.28 C 1233.08 415.32 1232.84 395.36 1233.13 375.41 C 1237.91 375.57 1242.70 375.47 1247.50 375.50 C 1247.48 390.29 1247.54 405.09 1247.47 419.88 C 1256.49 421.71 1265.59 423.09 1274.57 425.13 C 1270.65 412.41 1269.91 397.99 1276.05 385.83 C 1280.92 375.89 1290.69 369.02 1301.23 366.21 Z" />
</g>
</svg>
