<?xml version="1.0" encoding="UTF-8" ?>
<!DOCTYPE svg PUBLIC "-//W3C//DTD SVG 1.1//EN" "http://www.w3.org/Graphics/SVG/1.1/DTD/svg11.dtd">
<svg width="816pt" height="254pt" viewBox="0 0 816 254" version="1.1" xmlns="http://www.w3.org/2000/svg">
<g id="#fbfbfbff">
</g>
<g id="#e42d25ff">
<path fill="#e42d25" opacity="1.00" d=" M 98.03 1.03 C 146.69 0.62 195.37 1.06 244.03 0.82 C 364.04 1.00 484.02 0.78 604.02 0.88 C 630.70 1.13 657.37 0.68 684.05 0.92 C 699.35 1.15 714.78 -0.21 729.96 2.41 C 752.23 5.80 773.45 16.65 788.89 33.13 C 809.26 54.62 818.40 85.76 814.20 114.90 C 811.78 134.97 802.85 154.21 788.95 168.91 C 778.04 180.34 764.41 189.28 749.44 194.40 C 737.18 199.09 724.03 200.66 711.01 201.41 C 509.01 201.40 307.00 201.40 105.00 201.41 C 91.45 200.65 77.78 198.89 65.08 193.85 C 32.08 182.41 6.72 151.61 2.16 116.95 C 0.02 105.36 0.45 93.45 2.71 81.92 C 4.31 70.08 9.19 58.99 15.12 48.73 C 21.74 38.98 29.18 29.55 38.82 22.60 C 55.62 9.34 76.82 2.35 98.03 1.03 M 91.01 26.54 C 86.80 26.55 83.06 28.87 78.84 28.91 C 78.42 29.26 77.58 29.95 77.16 30.29 C 74.16 30.55 71.58 32.18 68.72 32.95 C 68.31 33.31 67.50 34.03 67.09 34.39 C 66.53 34.50 65.41 34.74 64.85 34.85 C 61.13 37.49 57.10 39.68 53.49 42.47 C 40.64 52.27 31.72 66.88 28.33 82.63 C 25.96 90.19 26.33 98.19 26.39 106.00 C 26.61 118.26 30.23 130.41 36.89 140.71 C 45.97 156.34 61.52 167.88 78.93 172.52 C 90.29 175.93 102.24 176.83 114.05 176.58 C 311.36 176.58 508.67 176.58 705.98 176.58 C 710.37 176.58 714.81 176.77 719.15 175.95 C 741.21 174.07 763.52 163.81 776.35 145.24 C 783.49 135.53 787.26 123.77 789.29 112.01 C 789.93 101.65 790.27 91.04 787.41 80.95 C 783.61 66.61 775.78 52.92 763.89 43.79 C 759.35 40.00 754.44 36.44 748.95 34.18 C 748.52 33.87 747.65 33.25 747.22 32.93 C 744.41 32.10 741.82 30.61 738.88 30.25 C 738.46 29.91 737.62 29.24 737.21 28.90 C 735.27 28.68 733.31 28.52 731.48 27.86 C 726.79 26.18 721.71 26.50 716.90 25.36 C 714.66 24.73 712.32 24.76 710.02 24.79 C 508.36 24.79 306.69 24.79 105.02 24.79 C 100.28 24.74 95.72 26.22 91.01 26.54 Z" />
<path fill="#e42d25" opacity="1.00" d=" M 81.54 54.76 C 81.84 54.45 82.45 53.82 82.75 53.51 C 91.48 53.40 100.22 53.50 108.96 53.46 C 110.80 53.13 112.13 54.43 112.87 55.95 C 120.61 69.49 129.52 82.30 137.30 95.81 C 141.43 102.19 145.58 108.57 149.13 115.30 C 149.76 116.62 151.28 117.03 152.42 117.80 C 151.70 114.93 151.44 111.98 151.50 109.03 C 151.60 90.96 151.43 72.89 151.58 54.82 C 151.87 54.50 152.47 53.85 152.76 53.53 C 162.06 53.33 171.36 53.59 180.66 53.42 C 181.02 82.28 180.69 111.16 180.83 140.03 C 180.87 142.85 180.80 145.67 180.56 148.49 C 171.06 147.03 161.34 148.08 151.75 147.88 C 149.47 145.10 147.86 141.88 146.03 138.81 C 138.22 126.87 130.77 114.68 123.44 102.44 C 119.62 95.94 114.77 90.03 111.89 83.00 C 110.37 86.12 110.99 89.61 110.90 92.95 C 111.35 101.27 111.33 109.62 110.88 117.94 C 111.42 123.59 111.18 129.26 111.18 134.93 C 111.13 139.44 111.74 144.05 110.38 148.44 C 102.26 148.29 94.15 148.39 86.04 148.40 C 84.40 148.52 82.86 148.03 81.35 147.49 C 81.58 116.58 81.42 85.67 81.54 54.76 Z" />
<path fill="#e42d25" opacity="1.00" d=" M 197.03 72.74 C 196.73 66.29 196.04 59.62 197.53 53.29 C 206.87 53.61 216.22 53.21 225.56 53.51 C 225.69 59.87 225.54 66.23 225.68 72.59 C 216.14 72.98 206.58 72.66 197.03 72.74 Z" />
<path fill="#e42d25" opacity="1.00" d=" M 615.64 57.97 C 615.55 56.39 616.08 54.89 616.56 53.42 C 625.46 53.59 634.37 53.34 643.27 53.52 C 643.55 53.85 644.10 54.49 644.38 54.82 C 644.55 85.67 644.34 116.54 644.48 147.40 C 643.05 147.93 641.59 148.49 640.04 148.39 C 632.98 148.34 625.92 148.39 618.87 148.37 C 616.76 148.82 616.20 146.53 615.24 145.23 C 609.80 147.69 604.15 150.19 598.03 149.70 C 583.51 150.66 570.34 140.16 565.05 127.12 C 564.39 122.18 562.86 117.20 563.84 112.18 C 564.34 109.83 564.72 107.45 564.94 105.05 C 567.39 102.64 568.13 99.07 570.46 96.54 C 574.56 91.82 579.09 87.02 585.08 84.77 C 591.43 82.60 598.47 81.58 605.02 83.50 C 608.69 84.31 611.95 86.39 615.69 86.98 C 615.63 77.31 615.67 67.64 615.64 57.97 M 602.02 93.28 C 597.61 94.44 594.53 98.63 594.44 103.14 C 594.27 111.42 594.39 119.70 594.38 127.99 C 594.31 131.81 595.94 135.82 599.29 137.89 C 601.98 140.09 605.71 139.53 608.91 139.20 C 614.36 136.89 617.01 130.64 616.37 124.97 C 615.89 116.15 617.43 107.12 615.14 98.48 C 612.18 94.53 607.05 91.25 602.02 93.28 Z" />
<path fill="#e42d25" opacity="1.00" d=" M 339.50 63.38 C 349.12 63.28 358.77 63.03 368.38 63.51 C 368.38 67.54 368.37 71.58 368.43 75.61 C 373.46 75.92 378.61 74.99 383.56 76.25 C 383.54 79.29 383.53 82.34 383.41 85.38 C 378.53 85.69 373.61 85.08 368.76 85.70 C 368.20 87.05 368.40 88.55 368.35 89.97 C 368.47 109.09 368.29 128.21 368.44 147.33 C 367.02 147.94 365.56 148.54 363.98 148.40 C 357.33 148.36 350.68 148.35 344.03 148.40 C 342.41 148.51 340.86 148.08 339.40 147.46 C 339.60 127.10 339.45 106.73 339.47 86.37 C 339.14 85.99 338.47 85.22 338.13 84.84 C 334.02 84.78 329.91 84.74 325.85 85.47 C 322.76 83.68 324.97 79.25 324.44 76.32 C 329.44 75.97 334.53 76.79 339.48 75.81 C 339.49 71.66 339.48 67.52 339.50 63.38 Z" />
<path fill="#e42d25" opacity="1.00" d=" M 678.86 82.90 C 683.91 82.29 688.82 80.59 693.96 80.63 C 699.71 80.40 705.31 81.97 710.94 82.95 C 712.12 84.13 713.69 84.62 715.31 84.90 C 715.71 85.28 716.52 86.04 716.92 86.42 C 717.44 86.52 718.48 86.72 719.00 86.82 C 722.84 90.37 727.41 93.21 730.39 97.64 C 734.87 103.46 736.48 110.80 736.47 118.03 C 735.33 121.73 735.74 125.84 733.57 129.21 C 730.84 135.82 725.29 140.53 719.75 144.75 C 709.40 150.90 696.68 153.03 684.89 150.45 C 672.43 148.05 660.68 139.93 655.70 128.02 C 650.68 116.60 653.79 102.27 662.86 93.78 C 666.95 89.75 671.45 85.68 677.17 84.25 C 677.59 83.91 678.44 83.24 678.86 82.90 M 690.11 89.87 C 685.49 91.92 683.32 97.30 683.34 102.09 C 683.34 111.70 683.30 121.31 683.35 130.92 C 683.30 136.09 686.61 140.54 690.80 143.25 C 693.70 143.26 696.87 143.93 699.48 142.28 C 704.14 140.20 705.85 134.75 706.25 130.05 C 706.38 121.02 706.35 111.98 706.28 102.94 C 706.10 99.00 704.95 94.84 702.03 92.02 C 699.00 88.86 694.04 88.47 690.11 89.87 Z" />
<path fill="#e42d25" opacity="1.00" d=" M 401.15 85.50 C 414.40 79.70 430.30 79.61 443.22 86.35 C 449.35 89.34 454.45 94.12 458.43 99.61 C 461.75 104.50 463.02 110.44 463.56 116.24 C 461.38 117.90 458.50 117.09 455.98 117.28 C 440.54 117.38 425.10 116.97 409.68 117.50 C 410.16 124.65 408.51 132.40 412.43 138.89 C 416.62 145.22 427.24 145.27 431.26 138.71 C 433.92 135.19 433.40 130.64 433.34 126.50 C 434.84 126.01 436.38 125.56 437.99 125.67 C 445.58 125.61 453.17 125.69 460.76 125.58 C 461.59 130.80 457.22 134.62 454.48 138.51 C 446.02 146.97 434.04 152.09 422.02 151.69 C 408.84 152.04 394.96 146.88 386.77 136.22 C 381.70 130.35 379.59 122.55 379.60 114.91 C 380.01 111.86 380.90 108.90 381.56 105.90 C 384.59 96.47 392.63 89.87 401.15 85.50 M 411.70 95.43 C 409.96 98.91 410.44 102.90 410.24 106.65 C 418.01 106.79 425.78 106.80 433.55 106.65 C 433.48 103.44 433.37 100.23 433.12 97.02 C 431.50 94.54 429.83 91.85 427.01 90.60 C 421.75 87.61 414.28 89.96 411.70 95.43 Z" />
<path fill="#e42d25" opacity="1.00" d=" M 269.47 90.83 C 275.92 86.51 283.03 82.39 291.04 82.38 C 301.23 81.67 311.62 86.20 318.03 94.15 C 323.21 100.87 324.66 109.72 324.40 118.00 C 324.40 127.78 324.32 137.56 324.45 147.33 C 323.04 147.96 321.58 148.54 320.01 148.39 C 313.35 148.36 306.68 148.36 300.02 148.39 C 298.45 148.50 296.99 147.94 295.58 147.35 C 295.45 132.45 296.03 117.51 295.25 102.62 C 292.17 97.99 286.60 94.60 280.91 95.54 C 275.01 96.47 269.20 101.60 269.50 107.92 C 269.55 121.17 269.47 134.43 269.55 147.69 C 266.15 148.78 262.54 148.30 259.03 148.37 C 253.65 148.28 248.26 148.52 242.88 148.30 C 241.66 148.39 240.67 147.11 240.77 145.97 C 240.66 125.83 240.87 105.68 240.67 85.55 C 245.31 84.09 250.21 84.91 254.99 84.73 C 259.85 84.89 264.80 84.18 269.57 85.41 C 269.52 87.21 269.48 89.02 269.47 90.83 Z" />
<path fill="#e42d25" opacity="1.00" d=" M 502.33 90.27 C 508.89 83.59 518.93 81.66 527.95 82.55 C 538.54 84.12 548.66 90.73 553.01 100.73 C 554.43 105.69 555.33 110.83 555.30 116.00 C 555.25 125.01 555.27 134.02 555.30 143.03 C 555.36 144.88 554.81 146.67 554.35 148.44 C 545.08 147.92 535.67 149.15 526.48 147.78 C 526.55 134.19 526.51 120.60 526.51 107.01 C 526.38 99.00 517.13 93.23 509.76 96.07 C 504.96 97.44 500.29 101.65 500.47 106.96 C 500.52 120.45 500.38 133.94 500.56 147.42 C 499.09 147.99 497.60 148.54 496.01 148.39 C 489.33 148.35 482.65 148.37 475.98 148.39 C 474.42 148.49 473.00 147.91 471.60 147.35 C 471.65 126.74 471.70 106.13 471.72 85.52 C 481.35 84.97 491.03 85.21 500.67 85.40 C 500.43 87.09 500.09 88.77 499.62 90.41 C 500.51 90.36 501.42 90.31 502.33 90.27 Z" />
<path fill="#e42d25" opacity="1.00" d=" M 197.27 84.67 C 206.68 84.76 216.10 84.73 225.51 84.69 C 225.76 105.71 225.52 126.74 225.63 147.77 C 221.82 148.81 217.85 148.26 213.95 148.36 C 209.29 148.32 204.62 148.43 199.95 148.38 C 198.51 148.58 196.57 147.67 196.77 146.00 C 196.70 128.33 196.78 110.65 196.74 92.98 C 196.71 90.20 196.54 87.38 197.27 84.67 Z" />
<path fill="#e42d25" opacity="1.00" d=" M 214.50 231.74 C 214.63 229.67 214.70 227.59 214.70 225.51 C 215.10 227.28 215.14 229.22 216.21 230.77 C 219.84 231.71 223.71 230.79 227.44 231.17 C 227.28 238.55 227.27 245.94 227.39 253.32 C 230.37 253.27 233.34 253.22 236.32 253.16 C 236.57 246.02 235.73 238.79 236.74 231.70 C 240.27 230.45 244.15 231.79 247.75 230.73 C 247.79 229.03 247.85 227.34 247.91 225.64 C 248.20 225.92 248.78 226.48 249.06 226.75 C 249.19 228.03 249.27 229.31 249.36 230.59 C 245.53 231.79 241.47 231.80 237.50 231.76 C 236.42 239.14 238.24 246.73 236.35 254.00 L 227.03 254.00 C 226.34 246.64 226.65 239.23 226.83 231.86 C 222.72 231.76 218.61 231.78 214.50 231.74 Z" />
</g>
<g id="#000000ff">
<path fill="#000000" opacity="1.00" d=" M 703.44 224.39 C 713.90 224.25 724.37 224.47 734.83 224.26 C 735.06 226.54 736.52 229.82 734.27 231.45 C 726.67 231.48 719.07 231.31 711.48 231.52 C 711.40 232.85 711.34 234.19 711.31 235.53 C 718.29 235.67 725.27 235.53 732.25 235.57 C 734.10 236.87 733.20 239.32 733.31 241.22 C 727.25 242.21 720.89 241.44 714.72 241.53 C 713.52 242.67 710.31 243.37 711.52 245.56 C 712.20 246.26 712.91 246.94 713.66 247.58 C 720.88 247.42 728.10 247.41 735.32 247.57 C 735.34 249.24 735.40 250.92 735.47 252.59 C 731.09 253.95 726.47 253.15 721.97 253.33 C 717.34 253.20 712.67 253.76 708.08 253.03 C 705.48 251.21 702.94 248.34 703.39 244.94 C 703.40 238.09 703.45 231.24 703.44 224.39 Z" />
<path fill="#000000" opacity="1.00" d=" M 22.49 225.53 C 32.56 225.30 42.64 225.57 52.71 225.39 C 52.73 227.43 52.69 229.47 52.59 231.51 C 45.40 231.33 38.21 231.51 31.02 231.38 C 30.27 233.46 30.87 235.51 31.74 237.44 C 38.73 237.44 45.72 237.49 52.70 237.39 C 52.72 239.44 52.70 241.49 52.60 243.55 C 45.74 243.41 38.89 243.43 32.03 243.48 C 29.93 243.15 29.94 247.31 31.80 247.45 C 38.76 247.54 45.73 247.47 52.69 247.43 C 52.40 249.27 53.52 251.90 52.04 253.23 C 44.03 253.49 36.00 253.30 27.99 253.31 C 25.65 253.60 24.13 251.67 22.59 250.28 C 22.51 242.03 22.61 233.78 22.49 225.53 Z" />
<path fill="#000000" opacity="1.00" d=" M 60.66 225.56 C 71.25 225.27 81.86 225.57 92.46 225.40 C 92.75 225.93 93.32 227.01 93.60 227.54 C 94.28 227.50 95.64 227.41 96.31 227.37 C 96.60 229.44 97.71 231.18 98.63 233.00 C 98.69 239.59 98.71 246.18 98.63 252.77 C 95.57 254.12 91.77 253.45 88.61 252.52 C 89.15 246.61 88.00 240.58 89.37 234.77 C 88.36 233.60 87.33 232.45 86.28 231.33 C 81.43 231.47 76.58 231.51 71.74 231.31 C 70.75 232.51 69.19 233.39 68.69 234.92 C 68.55 240.86 68.83 246.82 68.64 252.76 C 66.27 254.22 63.13 253.11 60.57 252.55 C 60.83 243.55 60.67 234.55 60.66 225.56 Z" />
<path fill="#000000" opacity="1.00" d=" M 102.25 225.45 C 113.07 225.39 123.90 225.54 134.72 225.37 C 134.76 227.42 134.73 229.48 134.60 231.53 C 130.68 231.66 126.60 230.86 122.77 231.82 C 122.55 238.82 122.87 245.84 122.67 252.85 C 119.82 254.20 116.45 253.02 113.45 252.73 C 113.56 245.69 113.73 238.64 113.34 231.62 C 109.77 231.29 106.17 231.42 102.59 231.49 C 101.53 229.59 101.46 227.46 102.25 225.45 Z" />
<path fill="#000000" opacity="1.00" d=" M 138.79 225.86 C 139.12 225.76 139.78 225.56 140.11 225.46 C 149.96 225.44 159.81 225.41 169.66 225.49 C 169.63 227.47 169.59 229.45 169.52 231.43 C 162.15 231.54 154.77 231.23 147.42 231.54 C 145.59 232.82 146.82 235.81 147.71 237.48 C 154.69 237.41 161.68 237.46 168.66 237.44 C 168.65 239.46 168.62 241.48 168.56 243.50 C 161.23 243.50 153.90 243.31 146.57 243.59 C 146.78 244.85 146.31 246.43 147.35 247.42 C 154.75 247.61 162.15 247.39 169.55 247.49 C 169.61 249.27 169.65 251.05 169.70 252.84 C 164.51 253.77 159.23 253.22 154.00 253.35 C 150.03 253.29 146.04 253.64 142.09 253.12 C 140.79 252.35 139.74 251.24 138.62 250.25 C 138.91 242.12 138.56 233.98 138.79 225.86 Z" />
<path fill="#000000" opacity="1.00" d=" M 176.81 225.83 C 177.14 225.74 177.80 225.55 178.13 225.45 C 187.40 225.43 196.69 225.44 205.96 225.44 C 207.71 226.84 209.29 228.47 210.68 230.22 C 211.20 235.01 210.72 239.74 208.36 243.99 C 211.79 245.73 210.69 249.70 210.67 252.84 C 208.05 254.03 205.08 253.24 202.42 252.59 C 202.50 251.15 202.56 249.70 202.60 248.26 C 201.47 247.39 200.34 246.50 199.21 245.62 C 195.71 245.71 192.20 245.74 188.70 245.58 C 187.31 246.56 185.91 247.54 184.54 248.57 C 184.66 250.04 184.75 251.52 184.83 252.99 C 182.07 253.41 179.18 253.70 176.57 252.48 C 177.12 243.61 176.44 234.71 176.81 225.83 M 184.60 234.75 C 184.50 236.41 185.05 237.98 185.60 239.51 C 190.43 239.41 195.27 239.40 200.11 239.53 C 201.00 238.06 202.81 236.90 202.81 235.05 C 202.27 233.61 201.11 232.53 200.24 231.31 C 196.06 231.49 191.87 231.50 187.69 231.30 C 186.62 232.41 185.50 233.49 184.60 234.75 Z" />
<path fill="#000000" opacity="1.00" d=" M 214.70 225.51 C 225.76 225.49 236.85 225.22 247.91 225.64 C 247.85 227.34 247.79 229.03 247.75 230.73 C 244.15 231.79 240.27 230.45 236.74 231.70 C 235.73 238.79 236.57 246.02 236.32 253.16 C 233.34 253.22 230.37 253.27 227.39 253.32 C 227.27 245.94 227.28 238.55 227.44 231.17 C 223.71 230.79 219.84 231.71 216.21 230.77 C 215.14 229.22 215.10 227.28 214.70 225.51 Z" />
<path fill="#000000" opacity="1.00" d=" M 257.33 225.58 C 265.53 225.24 273.78 225.54 281.99 225.43 C 284.03 226.95 285.66 228.99 287.16 231.04 C 286.78 235.02 286.43 239.04 287.12 243.02 C 287.65 246.17 286.39 249.38 287.44 252.47 C 283.94 253.70 279.98 253.86 276.53 252.39 C 277.41 250.10 277.13 247.80 276.30 245.56 C 271.41 245.55 266.54 246.97 261.73 245.44 C 260.95 247.72 260.39 250.11 261.45 252.43 C 258.31 253.92 254.80 253.34 251.47 253.17 C 251.45 246.40 251.48 239.63 251.46 232.86 C 253.06 230.18 254.78 227.47 257.33 225.58 M 260.49 234.78 C 260.67 236.41 261.04 238.00 261.49 239.58 C 266.40 239.30 271.32 239.54 276.24 239.46 C 277.15 238.50 277.50 237.35 277.31 236.01 C 277.04 234.57 278.05 231.98 276.16 231.44 C 272.02 231.31 267.88 231.55 263.74 231.33 C 262.65 232.47 261.57 233.63 260.49 234.78 Z" />
<path fill="#000000" opacity="1.00" d=" M 293.26 225.37 C 296.44 225.46 299.62 225.45 302.80 225.38 C 302.84 234.40 302.43 243.47 303.41 252.47 C 299.92 253.76 295.99 253.80 292.53 252.43 C 294.03 243.47 292.71 234.31 293.26 225.37 Z" />
<path fill="#000000" opacity="1.00" d=" M 307.46 225.54 C 318.28 225.33 329.11 225.50 339.94 225.43 C 342.02 226.89 343.64 228.92 345.39 230.75 C 344.19 235.74 344.98 240.94 344.82 246.02 C 344.68 248.18 344.97 250.32 345.48 252.42 C 342.64 253.74 339.39 253.69 336.54 252.43 C 337.95 246.63 336.88 240.63 337.37 234.74 C 336.35 233.58 335.33 232.44 334.29 231.32 C 329.45 231.50 324.61 231.48 319.77 231.33 C 318.74 232.40 317.70 233.47 316.67 234.54 C 316.80 240.78 316.74 247.02 316.73 253.25 C 313.66 253.37 310.59 253.35 307.53 253.17 C 307.48 243.96 307.60 234.75 307.46 225.54 Z" />
<path fill="#000000" opacity="1.00" d=" M 353.23 225.37 C 367.25 225.59 381.26 225.31 395.28 225.51 C 398.31 227.09 399.66 230.15 401.10 233.06 C 400.54 239.70 400.77 246.40 400.78 253.08 C 397.37 253.37 393.81 253.89 390.58 252.44 C 391.51 247.66 391.40 242.74 390.90 237.92 C 391.01 235.70 391.67 233.37 390.50 231.30 C 387.86 231.43 385.23 231.43 382.60 231.41 C 379.57 234.98 380.95 239.80 381.19 244.02 C 380.85 246.83 380.53 249.67 381.48 252.42 C 378.58 253.73 375.39 253.37 372.35 252.97 C 372.45 246.93 372.30 240.88 372.47 234.84 C 371.81 233.69 371.17 232.55 370.54 231.40 C 368.23 231.48 365.85 231.13 363.59 231.59 C 362.53 232.55 361.60 233.65 360.64 234.72 C 360.84 240.63 360.49 246.57 361.47 252.43 C 358.61 253.65 355.40 253.80 352.56 252.44 C 354.49 243.54 352.07 234.33 353.23 225.37 Z" />
<path fill="#000000" opacity="1.00" d=" M 443.33 225.41 C 454.34 225.48 465.36 225.44 476.38 225.43 C 477.98 227.25 479.86 228.83 481.27 230.82 C 481.38 238.04 481.10 245.27 481.39 252.49 C 478.58 253.84 475.43 253.51 472.56 252.54 C 473.10 246.67 471.98 240.68 473.26 234.90 C 472.26 233.70 471.27 232.51 470.28 231.32 C 464.67 231.54 459.05 231.38 453.44 231.43 C 453.13 238.46 453.22 245.50 453.39 252.53 C 450.19 253.34 446.41 254.12 443.36 252.72 C 443.28 243.62 443.38 234.51 443.33 225.41 Z" />
<path fill="#000000" opacity="1.00" d=" M 487.41 225.36 C 497.90 225.52 508.39 225.45 518.87 225.40 C 519.47 227.46 519.45 229.60 518.51 231.56 C 514.74 231.39 510.98 231.42 507.21 231.37 C 507.32 238.41 507.15 245.45 507.40 252.48 C 504.81 253.68 501.98 253.46 499.25 253.09 C 499.23 246.03 499.43 238.97 499.19 231.92 C 495.57 230.70 491.39 231.72 487.56 231.55 C 486.58 229.55 486.94 227.43 487.41 225.36 Z" />
<path fill="#000000" opacity="1.00" d=" M 591.31 225.31 C 593.99 225.32 596.68 225.32 599.36 225.53 C 599.29 229.52 599.20 233.51 599.43 237.49 C 604.68 237.41 609.93 237.46 615.18 237.45 C 615.92 236.39 616.67 235.33 617.41 234.27 C 617.29 231.29 617.28 228.31 617.30 225.33 C 619.98 225.32 622.67 225.32 625.35 225.52 C 625.30 230.44 625.21 235.37 625.41 240.29 C 623.37 242.51 620.86 244.18 618.16 245.47 C 616.53 245.39 614.91 245.33 613.30 245.30 C 613.26 247.72 613.30 250.15 613.42 252.57 C 610.11 253.62 606.63 253.56 603.25 252.94 C 603.28 250.46 603.33 247.98 603.38 245.50 C 601.20 245.37 599.02 245.36 596.85 245.41 C 594.95 243.94 593.00 242.49 591.39 240.70 C 591.16 235.58 591.39 230.44 591.31 225.31 Z" />
<path fill="#000000" opacity="1.00" d=" M 634.25 225.42 C 643.97 225.44 653.71 225.15 663.43 225.55 C 663.31 227.57 663.51 229.72 662.52 231.58 C 654.13 231.28 645.73 231.47 637.33 231.45 C 636.98 233.52 637.24 235.76 639.59 236.42 C 645.84 237.24 652.39 235.61 658.52 237.67 C 660.31 239.16 661.87 240.93 663.26 242.80 C 663.37 244.60 663.34 246.41 663.40 248.21 C 661.61 249.86 660.08 251.90 657.90 253.03 C 653.30 253.68 648.64 253.27 644.02 253.33 C 639.09 253.16 634.13 253.73 629.24 252.94 C 629.25 251.10 629.28 249.26 629.33 247.43 C 637.63 247.47 645.94 247.55 654.24 247.43 C 656.06 247.27 655.04 244.75 655.43 243.52 C 654.40 242.74 653.60 241.30 652.13 241.49 C 646.07 241.39 640.02 241.49 633.97 241.49 C 632.54 239.59 630.59 238.07 629.41 236.00 C 629.22 234.08 629.28 232.15 629.27 230.23 C 630.92 228.63 632.59 227.02 634.25 225.42 Z" />
<path fill="#000000" opacity="1.00" d=" M 741.32 225.35 C 754.88 225.38 768.44 225.38 782.00 225.35 C 785.19 224.86 787.39 227.75 789.09 230.02 C 789.76 237.48 789.00 245.08 789.46 252.59 C 786.91 253.23 783.72 254.19 781.38 252.71 C 781.29 246.38 781.31 240.05 781.44 233.72 C 779.87 230.37 775.89 231.58 772.94 231.39 C 770.52 231.11 770.57 234.32 769.60 235.79 C 771.21 241.18 769.81 246.96 770.45 252.51 C 767.57 253.06 764.01 254.31 761.40 252.75 C 761.24 245.66 761.40 238.57 761.38 231.48 C 758.06 231.40 754.74 231.44 751.44 231.32 C 751.25 238.40 751.25 245.50 751.47 252.58 C 748.18 253.77 744.68 253.46 741.31 252.99 C 741.38 243.77 741.36 234.56 741.32 225.35 Z" />
<path fill="#000000" opacity="1.00" d=" M 407.27 231.08 C 407.44 229.16 406.03 226.96 407.70 225.42 C 418.01 225.43 428.32 225.52 438.63 225.38 C 438.70 227.41 438.69 229.45 438.59 231.48 C 430.82 231.38 423.05 231.45 415.28 231.43 C 414.63 233.97 415.95 235.95 417.80 237.55 C 424.32 237.42 430.85 237.32 437.37 237.58 C 437.32 239.61 437.38 241.70 436.52 243.60 C 429.45 243.28 422.37 243.60 415.30 243.39 C 414.62 244.75 415.02 246.16 415.37 247.56 C 423.11 247.36 430.86 247.58 438.61 247.42 C 438.68 249.19 438.79 250.98 438.66 252.76 C 437.34 253.71 435.55 253.18 434.03 253.37 C 427.01 253.24 419.97 253.57 412.95 253.22 C 409.91 253.25 408.10 250.35 406.86 247.97 C 407.50 242.36 407.29 236.71 407.27 231.08 Z" />
<path fill="#000000" opacity="1.00" d=" M 555.54 227.74 C 557.65 226.87 559.55 225.13 561.98 225.36 C 570.45 225.43 578.92 225.24 587.39 225.47 C 587.29 227.52 587.55 229.70 586.53 231.57 C 579.33 231.27 572.13 231.52 564.93 231.39 C 563.20 231.18 562.12 232.88 561.14 234.01 C 561.12 235.70 562.98 236.21 564.31 236.59 C 570.95 236.84 577.67 236.00 584.18 237.68 C 586.42 240.85 588.02 244.26 587.40 248.25 C 584.99 250.50 582.80 253.93 579.00 253.33 C 570.51 252.98 561.85 254.23 553.49 252.48 C 553.76 250.80 553.22 248.78 554.70 247.53 C 562.68 247.29 570.69 247.69 578.67 247.39 C 580.14 245.99 579.12 243.47 579.32 241.63 C 572.19 241.28 565.04 241.50 557.90 241.51 C 555.70 239.13 554.69 236.07 553.57 233.11 C 554.38 231.38 554.97 229.56 555.54 227.74 Z" />
<path fill="#000000" opacity="1.00" d=" M 667.40 231.52 C 667.28 229.43 667.27 227.34 667.38 225.26 C 678.39 225.61 689.40 225.09 700.40 225.54 C 700.07 227.48 701.23 230.10 699.21 231.38 C 695.66 231.55 692.11 231.29 688.58 231.59 C 688.43 238.61 688.63 245.65 688.50 252.67 C 685.84 253.78 682.11 253.74 679.35 252.79 C 679.25 245.71 679.32 238.63 679.37 231.55 C 675.38 231.32 671.38 231.41 667.40 231.52 Z" />
</g>
</svg>
