<?xml version="1.0" encoding="UTF-8" ?>
<!DOCTYPE svg PUBLIC "-//W3C//DTD SVG 1.1//EN" "http://www.w3.org/Graphics/SVG/1.1/DTD/svg11.dtd">
<svg width="609pt" height="177pt" viewBox="0 0 609 177" version="1.1" xmlns="http://www.w3.org/2000/svg">
<g id="#526188ff">
<path fill="#526188" opacity="1.00" d=" M 48.91 14.91 C 51.25 6.28 60.16 0.21 69.04 0.88 C 77.55 1.17 85.08 7.59 87.36 15.70 C 103.79 69.26 120.31 122.81 136.69 176.39 C 126.85 176.34 117.01 176.34 107.17 176.38 C 103.11 161.65 99.34 146.84 95.25 132.11 C 77.07 132.14 58.89 132.13 40.72 132.12 C 36.90 146.85 33.18 161.61 29.40 176.36 C 19.80 176.35 10.19 176.37 0.58 176.35 C 16.62 122.52 32.83 68.74 48.91 14.91 M 67.59 37.81 C 61.24 61.71 55.24 85.71 49.00 109.64 C 61.55 109.78 74.10 109.73 86.65 109.66 C 80.38 85.69 74.23 61.68 67.59 37.81 Z" />
<path fill="#526188" opacity="1.00" d=" M 270.35 14.58 C 272.69 6.58 280.68 0.83 288.96 0.86 C 295.48 0.66 301.95 4.03 305.64 9.41 C 308.34 13.27 309.33 17.95 310.74 22.37 C 326.54 73.69 342.23 125.05 358.09 176.36 C 348.19 176.33 338.29 176.42 328.39 176.31 C 324.59 161.55 320.56 146.85 316.59 132.14 C 298.42 132.11 280.25 132.13 262.08 132.13 C 258.18 146.84 254.52 161.61 250.78 176.36 C 241.13 176.36 231.48 176.36 221.84 176.35 C 238.10 122.46 254.17 68.50 270.35 14.58 M 287.01 44.87 C 281.54 66.49 275.76 88.03 270.40 109.67 C 282.95 109.71 295.49 109.80 308.03 109.63 C 301.65 85.75 295.55 61.79 289.03 37.95 C 288.23 40.22 287.55 42.53 287.01 44.87 Z" />
<path fill="#526188" opacity="1.00" d=" M 378.42 7.45 C 381.68 3.40 386.68 0.45 392.01 0.76 C 404.32 0.80 416.63 0.66 428.94 0.85 C 440.38 0.91 451.09 7.07 458.24 15.79 C 475.99 37.46 475.71 72.01 457.17 93.13 C 453.77 97.16 449.39 100.15 445.00 102.99 C 441.17 105.41 441.14 111.10 443.33 114.64 C 456.08 135.24 468.93 155.79 481.68 176.39 C 471.25 176.31 460.83 176.41 450.40 176.33 C 439.44 159.09 428.46 141.86 417.46 124.64 C 412.72 117.48 410.93 108.36 412.82 99.97 C 413.92 94.33 416.46 88.71 420.98 85.00 C 427.01 80.07 435.39 78.61 440.52 72.48 C 449.37 61.84 449.09 44.56 439.58 34.41 C 436.37 30.98 431.71 29.32 427.08 29.25 C 419.71 29.04 412.32 29.14 404.95 29.16 C 402.66 29.08 400.51 30.55 399.53 32.58 C 397.84 35.79 398.38 39.53 398.30 43.01 C 398.32 87.45 398.31 131.89 398.31 176.33 C 389.55 176.34 380.80 176.33 372.05 176.33 C 372.04 126.54 372.07 76.74 372.04 26.95 C 372.06 20.01 374.00 12.89 378.42 7.45 Z" />
<path fill="#526188" opacity="1.00" d=" M 121.27 27.14 C 121.27 19.62 121.25 12.09 121.28 4.56 C 158.69 4.57 196.10 4.56 233.51 4.56 C 233.52 12.09 233.51 19.61 233.51 27.14 C 219.32 27.18 205.13 27.10 190.94 27.18 C 190.92 76.91 190.94 126.63 190.93 176.36 C 181.92 176.36 172.90 176.36 163.89 176.36 C 163.86 126.63 163.95 76.91 163.84 27.19 C 149.65 27.09 135.46 27.18 121.27 27.14 Z" />
<path fill="#526188" opacity="1.00" d=" M 500.54 5.09 C 509.53 5.10 518.51 5.08 527.50 5.10 C 527.49 62.19 527.51 119.27 527.49 176.36 C 518.51 176.36 509.53 176.36 500.55 176.36 C 500.54 119.27 500.54 62.18 500.54 5.09 Z" />
</g>
<g id="#000000ff">
<path fill="#000000" opacity="1.00" d=" M 578.28 5.26 C 588.68 2.79 600.54 8.53 604.49 18.56 C 607.92 27.57 605.11 38.43 598.01 44.88 C 592.95 49.57 585.39 50.94 578.80 49.36 C 571.77 47.85 565.77 42.66 562.80 36.18 C 559.74 29.56 560.38 21.41 564.48 15.38 C 567.77 10.62 572.56 6.64 578.28 5.26 M 578.31 11.50 C 571.25 14.04 565.84 21.47 567.06 29.14 C 568.09 39.85 580.85 47.27 590.66 42.71 C 600.67 38.43 603.68 23.69 596.01 15.92 C 591.67 11.06 584.40 9.67 578.31 11.50 Z" />
<path fill="#000000" opacity="1.00" d=" M 580.34 58.41 C 591.29 56.76 603.35 64.30 605.45 75.42 C 607.36 84.48 603.60 94.63 596.00 100.00 C 590.85 103.65 584.08 103.97 578.08 102.72 C 568.86 100.31 561.39 91.67 560.93 82.05 C 560.08 70.78 569.28 59.99 580.34 58.41 M 580.45 64.43 C 572.58 66.08 565.98 73.87 567.01 82.11 C 567.60 91.65 577.63 99.11 586.94 97.28 C 595.38 96.13 601.23 87.33 600.25 79.09 C 599.88 69.47 589.63 62.43 580.45 64.43 Z" />
<path fill="#000000" opacity="1.00" d=" M 582.64 115.94 C 584.77 112.40 587.73 108.87 592.10 108.34 C 600.81 106.81 608.65 115.38 607.61 123.88 C 607.36 132.17 598.46 139.07 590.42 136.41 C 586.86 135.51 584.59 132.45 582.68 129.55 C 579.84 133.95 573.97 136.46 569.03 134.09 C 560.96 130.80 559.66 118.67 566.13 113.17 C 571.01 108.72 579.35 110.32 582.64 115.94 M 590.34 113.32 C 582.49 116.37 582.66 129.89 591.06 132.06 C 597.69 134.34 604.98 127.96 603.60 121.11 C 602.81 115.07 596.04 110.99 590.34 113.32 M 570.38 115.47 C 563.84 117.99 564.73 129.64 572.03 130.33 C 577.57 131.57 582.05 125.51 580.33 120.43 C 579.50 116.04 574.33 113.83 570.38 115.47 Z" />
<path fill="#000000" opacity="1.00" d=" M 563.32 142.17 C 577.89 147.54 592.39 153.13 606.98 158.48 C 606.99 160.20 606.99 161.92 607.01 163.65 C 593.84 158.65 580.80 153.35 567.60 148.45 C 567.72 155.92 567.56 163.38 567.80 170.85 C 566.37 170.85 564.96 170.85 563.56 170.86 C 563.42 161.29 563.52 151.73 563.32 142.17 Z" />
</g>
</svg>
