<?xml version="1.0" encoding="UTF-8" ?>
<!DOCTYPE svg PUBLIC "-//W3C//DTD SVG 1.1//EN" "http://www.w3.org/Graphics/SVG/1.1/DTD/svg11.dtd">
<svg width="399pt" height="124pt" viewBox="0 0 399 124" version="1.1" xmlns="http://www.w3.org/2000/svg">
<g id="#ffffffff">
</g>
<g id="#b43a79ff">
<path fill="#b43a79" opacity="1.00" d=" M 46.26 0.00 L 50.73 0.00 C 56.91 0.95 61.48 6.07 62.95 11.96 C 73.37 49.13 84.10 86.21 94.32 123.43 C 87.22 123.50 80.09 123.89 73.01 123.33 C 69.43 113.95 67.98 103.85 64.43 94.46 C 60.84 93.03 56.81 93.86 53.03 93.68 C 45.44 93.96 37.80 93.14 30.26 94.07 C 25.80 103.38 24.16 113.84 19.88 123.23 C 13.29 123.96 6.61 123.62 0.00 123.23 L 0.00 121.45 C 11.48 85.03 22.67 48.52 34.08 12.07 C 35.99 6.46 40.42 1.56 46.26 0.00 M 47.07 35.84 C 42.47 48.48 39.21 61.59 34.82 74.31 C 36.51 74.73 38.23 75.12 39.98 75.04 C 46.35 74.92 52.72 75.17 59.08 74.82 C 56.58 63.03 52.52 51.61 49.51 39.94 C 48.93 38.45 49.05 36.17 47.07 35.84 Z" />
<path fill="#b43a79" opacity="1.00" d=" M 184.27 0.00 L 189.63 0.00 C 195.97 1.54 200.34 7.28 201.63 13.47 C 211.82 50.15 222.55 86.69 232.51 123.44 C 225.32 123.63 218.13 123.63 210.94 123.44 C 208.06 113.76 206.02 103.78 202.53 94.30 C 199.76 93.43 196.81 93.69 193.96 93.65 C 185.34 93.81 176.72 93.47 168.11 93.88 C 164.43 103.57 162.28 113.86 157.98 123.28 C 151.32 123.88 144.59 123.67 137.93 123.20 C 148.61 87.37 160.13 51.79 171.03 16.02 C 172.32 11.96 173.32 7.54 176.36 4.37 C 178.44 2.09 181.38 0.90 184.27 0.00 M 184.78 36.96 C 180.76 49.41 176.97 61.95 173.18 74.47 C 180.73 75.44 188.41 75.01 196.00 74.83 C 197.96 74.89 196.94 72.27 196.71 71.18 C 193.36 60.16 190.37 49.02 187.10 37.97 C 187.13 36.72 185.21 34.59 184.78 36.96 Z" />
<path fill="#b43a79" opacity="1.00" d=" M 241.96 21.03 C 241.14 11.71 248.69 2.58 257.89 1.30 C 262.86 0.23 267.96 0.99 273.00 0.77 C 281.55 0.75 290.53 1.62 298.01 6.15 C 309.06 12.52 316.63 25.04 316.11 37.92 C 316.55 49.21 310.55 60.07 301.63 66.75 C 298.49 69.53 294.26 70.62 291.09 73.33 C 289.66 75.39 291.57 77.57 292.48 79.43 C 300.50 92.06 308.45 104.73 316.51 117.33 C 317.64 119.14 318.69 121.01 319.59 122.94 C 312.13 123.06 304.67 122.97 297.20 123.00 C 287.90 109.46 279.71 95.19 270.51 81.57 C 266.13 75.78 266.16 66.65 271.27 61.32 C 276.20 56.72 283.21 55.58 288.64 51.76 C 297.14 45.35 296.25 30.49 287.44 24.70 C 280.34 19.81 271.18 21.77 263.12 21.93 C 262.88 24.29 262.73 26.65 262.73 29.01 C 262.78 56.66 262.74 84.31 262.75 111.95 C 262.77 115.64 263.03 119.39 262.13 123.01 C 255.46 122.96 248.80 123.06 242.14 122.94 C 241.79 88.97 242.14 54.99 241.96 21.03 Z" />
<path fill="#b43a79" opacity="1.00" d=" M 81.15 2.16 C 83.74 1.81 86.35 1.62 88.96 1.65 C 109.96 1.78 130.96 1.57 151.96 1.75 C 153.82 1.46 155.02 3.24 154.96 4.92 C 155.06 9.62 155.08 14.32 154.95 19.01 C 155.12 20.69 153.20 21.40 151.85 21.55 C 144.60 21.85 137.34 21.42 130.09 21.68 C 128.79 21.73 126.86 22.22 127.06 23.90 C 126.79 56.87 127.28 89.85 126.82 122.81 C 119.95 123.10 113.06 123.07 106.19 122.83 C 105.74 90.22 106.13 57.58 106.00 24.96 C 106.18 23.71 105.70 21.85 104.08 22.05 C 96.82 21.75 89.53 22.32 82.28 21.85 C 82.00 21.56 81.43 20.96 81.14 20.67 C 80.80 14.51 80.99 8.33 81.15 2.16 Z" />
<path fill="#b43a79" opacity="1.00" d=" M 328.01 1.88 C 334.99 1.57 342.00 1.57 348.99 1.88 C 349.00 42.25 349.02 82.63 348.98 123.00 C 341.99 122.97 335.00 123.01 328.00 123.00 C 328.00 82.62 327.99 42.25 328.01 1.88 Z" />
</g>
<g id="#000000ff">
<path fill="#000000" opacity="1.00" d=" M 376.59 1.74 C 385.00 -0.49 394.32 4.61 397.17 12.78 C 399.48 18.99 397.95 26.51 393.16 31.16 C 388.29 36.24 380.25 37.70 373.83 34.89 C 366.49 32.02 362.05 23.65 363.40 15.94 C 364.43 9.10 369.90 3.37 376.59 1.74 M 376.42 7.58 C 371.82 9.28 368.49 14.04 368.70 18.96 C 368.60 24.72 373.29 29.86 378.91 30.69 C 386.23 32.11 393.49 25.33 392.69 17.93 C 392.45 10.19 383.55 4.51 376.42 7.58 Z" />
<path fill="#000000" opacity="1.00" d=" M 376.49 38.57 C 382.30 36.98 388.77 38.91 393.05 43.07 C 397.39 47.36 399.26 53.96 397.74 59.88 C 395.97 67.38 388.68 73.16 380.96 73.04 C 372.07 73.50 363.83 65.91 363.23 57.09 C 362.32 48.76 368.33 40.41 376.49 38.57 M 377.10 44.11 C 372.07 45.61 368.41 50.70 368.71 55.96 C 368.77 62.27 374.54 67.99 380.94 67.57 C 387.89 67.67 393.77 60.75 392.61 53.92 C 391.83 46.81 383.90 41.67 377.10 44.11 Z" />
<path fill="#000000" opacity="1.00" d=" M 374.29 86.85 C 374.97 81.19 379.01 75.71 384.97 75.06 C 391.52 73.94 397.88 78.88 399.00 85.31 L 399.00 88.81 C 398.06 96.60 389.02 101.78 381.89 98.35 C 375.47 94.78 369.48 90.48 363.20 86.68 C 363.18 84.40 363.18 82.12 363.17 79.84 C 366.87 82.20 370.58 84.52 374.29 86.85 M 383.32 81.38 C 378.65 83.75 379.07 91.27 383.90 93.25 C 388.11 95.62 393.84 91.85 393.51 87.06 C 393.69 82.07 387.48 78.63 383.32 81.38 Z" />
<path fill="#000000" opacity="1.00" d=" M 363.11 113.03 C 362.59 105.67 370.51 99.18 377.60 101.69 C 383.64 104.30 387.63 109.86 392.34 114.23 C 392.39 109.92 392.37 105.62 392.37 101.32 C 394.14 101.31 395.91 101.31 397.69 101.30 C 397.69 108.56 397.69 115.82 397.69 123.09 C 395.95 122.86 393.97 123.38 392.41 122.54 C 387.10 117.89 382.83 112.10 377.20 107.81 C 373.26 104.85 367.50 109.65 369.09 114.12 C 369.71 117.10 372.94 117.86 375.41 118.65 C 375.38 120.43 375.37 122.22 375.36 124.00 L 373.20 124.00 C 367.77 123.29 363.02 118.68 363.11 113.03 Z" />
</g>
</svg>
