<?xml version="1.0" encoding="UTF-8" ?>
<!DOCTYPE svg PUBLIC "-//W3C//DTD SVG 1.1//EN" "http://www.w3.org/Graphics/SVG/1.1/DTD/svg11.dtd">
<svg width="1318pt" height="269pt" viewBox="0 0 1318 269" version="1.1" xmlns="http://www.w3.org/2000/svg">
<g id="#000000ff">
<path fill="#000000" opacity="1.00" d=" M 131.20 0.00 L 132.61 0.00 C 135.64 1.43 139.13 1.48 142.17 2.88 C 144.30 4.02 146.78 4.10 149.03 4.89 C 170.14 10.69 191.16 16.87 211.83 24.09 C 225.08 28.57 238.65 33.35 249.61 42.34 C 261.02 51.33 268.19 64.89 270.98 78.99 C 273.62 92.17 273.79 105.80 271.96 119.09 C 270.47 129.21 267.30 139.57 260.28 147.28 C 254.21 154.06 245.10 157.68 236.08 157.73 C 226.71 158.18 217.55 155.14 209.27 150.99 C 209.24 122.66 209.25 94.32 209.27 65.99 C 209.21 61.71 209.81 57.16 207.89 53.17 C 205.54 48.00 199.14 44.96 193.69 46.71 C 189.99 48.69 187.59 52.77 187.79 56.98 C 187.80 98.24 187.78 139.50 187.81 180.76 C 198.02 177.55 207.83 172.98 218.41 171.04 C 247.71 165.06 278.46 164.23 307.60 171.54 C 318.46 174.45 329.26 178.15 338.86 184.09 C 343.25 186.86 347.66 190.64 348.79 195.95 C 349.76 201.00 346.49 205.61 343.00 208.89 C 336.13 214.95 327.74 219.06 319.13 222.02 C 277.88 236.68 236.66 251.44 195.44 266.21 C 193.00 267.06 190.60 268.09 188.05 268.60 C 185.37 268.16 182.82 267.16 180.25 266.34 C 164.01 261.04 147.71 255.90 131.48 250.61 C 130.87 244.76 131.41 238.85 131.22 232.97 C 102.84 238.26 73.39 239.57 45.00 233.63 C 33.84 231.23 22.85 227.64 12.81 222.13 C 7.30 219.01 1.60 214.86 0.00 208.36 L 0.00 206.08 C 0.95 201.44 3.97 197.53 7.63 194.67 C 14.51 189.26 22.47 185.33 30.79 182.67 C 64.27 171.03 97.81 159.56 131.25 147.81 C 131.19 98.54 131.28 49.27 131.20 0.00 M 60.79 205.80 C 57.46 207.02 53.62 208.45 52.33 212.11 C 56.29 216.97 63.11 217.53 68.92 218.17 C 78.40 218.18 87.90 216.35 96.75 212.94 C 108.24 208.74 119.98 205.15 131.31 200.54 C 131.14 194.15 131.28 187.76 131.22 181.37 C 107.65 189.23 84.28 197.71 60.79 205.80 M 259.30 189.38 C 235.45 198.16 211.53 206.78 187.74 215.70 C 187.87 222.07 187.75 228.44 187.81 234.81 C 222.12 223.35 256.20 211.15 290.43 199.47 C 293.88 198.41 297.38 196.54 298.64 192.92 C 296.76 189.35 292.68 188.23 289.02 187.57 C 279.18 185.83 268.84 186.39 259.30 189.38 Z" />
</g>
<g id="#23b6a4ff">
<path fill="#23b6a4" opacity="1.00" d=" M 378.04 59.23 C 394.03 59.28 410.02 59.25 426.01 59.24 C 437.21 59.71 449.66 60.64 458.41 68.52 C 465.23 74.67 466.12 84.35 467.72 92.84 C 468.22 98.90 467.89 105.01 467.90 111.08 C 466.71 119.77 464.86 129.03 458.72 135.70 C 452.81 142.31 443.62 144.57 435.09 144.96 C 427.23 145.06 419.37 144.97 411.51 145.00 C 411.50 140.33 411.50 135.67 411.51 131.00 C 419.88 130.48 428.78 132.51 436.68 128.85 C 443.30 125.15 444.18 116.89 444.98 110.12 C 445.02 101.61 445.87 92.66 442.24 84.69 C 439.53 78.78 433.67 74.41 427.13 73.99 C 418.00 74.00 408.88 74.00 399.75 74.00 C 399.74 115.58 399.75 157.17 399.75 198.75 C 392.52 198.74 385.30 198.77 378.07 198.73 C 378.02 152.23 378.08 105.73 378.04 59.23 Z" />
<path fill="#23b6a4" opacity="1.00" d=" M 484.01 59.25 C 491.33 59.25 498.66 59.26 505.99 59.25 C 506.01 105.75 506.00 152.25 505.99 198.75 C 498.66 198.74 491.33 198.74 484.01 198.75 C 483.99 152.25 484.00 105.75 484.01 59.25 Z" />
<path fill="#23b6a4" opacity="1.00" d=" M 753.11 62.41 C 759.38 59.84 766.26 59.30 772.98 59.24 C 783.90 59.27 794.82 59.24 805.75 59.25 C 805.75 63.82 805.73 68.39 805.77 72.96 C 794.47 73.22 783.09 72.14 771.89 74.04 C 767.04 74.96 762.12 77.65 760.20 82.45 C 757.68 88.94 756.84 96.14 757.94 103.03 C 758.70 107.70 761.96 112.20 766.75 113.28 C 778.34 115.97 791.04 113.47 801.94 119.11 C 806.96 121.38 809.76 126.50 811.53 131.47 C 817.16 147.45 818.03 165.62 811.48 181.46 C 807.29 191.51 796.66 197.78 785.97 197.98 C 770.65 197.93 755.32 197.92 740.00 197.98 C 740.00 193.49 739.99 189.00 740.00 184.51 C 749.94 184.47 759.87 184.56 769.81 184.47 C 776.73 184.31 784.24 182.33 788.81 176.79 C 793.45 169.79 793.11 160.94 792.98 152.90 C 792.46 147.89 791.34 142.17 786.85 139.18 C 782.68 136.67 777.65 136.96 773.02 136.16 C 763.87 135.91 754.09 134.88 746.40 129.42 C 741.74 126.16 738.73 120.98 737.50 115.48 C 733.81 103.48 734.16 90.35 738.56 78.59 C 740.59 71.33 746.09 65.19 753.11 62.41 Z" />
<path fill="#23b6a4" opacity="1.00" d=" M 1071.01 59.25 C 1078.33 59.26 1085.66 59.26 1092.99 59.25 C 1093.00 65.75 1093.00 72.25 1092.99 78.75 C 1085.66 78.75 1078.33 78.74 1071.01 78.75 C 1070.99 72.25 1070.99 65.75 1071.01 59.25 Z" />
<path fill="#23b6a4" opacity="1.00" d=" M 838.02 72.00 C 845.26 72.00 852.50 71.99 859.75 72.01 C 859.73 78.69 859.77 85.38 859.72 92.06 C 868.06 92.05 876.39 92.03 884.73 92.07 C 884.76 96.63 884.74 101.19 884.75 105.75 C 876.41 105.75 868.08 105.74 859.75 105.75 C 859.77 127.52 859.69 149.29 859.79 171.05 C 859.88 175.93 861.27 182.05 866.43 183.90 C 870.72 184.34 875.07 183.81 879.40 184.01 C 879.58 188.72 879.45 193.43 879.51 198.14 C 875.03 198.81 870.50 198.39 866.00 198.49 C 859.33 198.41 852.18 199.20 846.08 195.89 C 841.07 193.81 838.32 188.32 838.05 183.12 C 838.03 146.08 838.10 109.04 838.02 72.00 Z" />
<path fill="#23b6a4" opacity="1.00" d=" M 1007.00 72.00 C 1014.33 72.00 1021.66 72.00 1029.00 72.00 C 1028.98 78.68 1029.04 85.37 1028.96 92.05 C 1037.22 92.07 1045.47 92.03 1053.73 92.07 C 1053.76 96.63 1053.74 101.19 1053.75 105.75 C 1045.50 105.75 1037.25 105.74 1029.00 105.75 C 1028.99 127.83 1029.02 149.92 1028.99 172.00 C 1028.97 175.57 1030.49 178.88 1032.16 181.96 C 1036.95 185.63 1043.19 183.33 1048.71 184.14 C 1048.77 188.92 1048.74 193.71 1048.73 198.50 C 1041.46 198.48 1034.19 198.51 1026.92 198.50 C 1021.48 198.39 1015.69 197.25 1011.57 193.46 C 1007.38 189.14 1006.77 182.73 1006.99 177.01 C 1007.02 142.01 1006.99 107.00 1007.00 72.00 Z" />
<path fill="#23b6a4" opacity="1.00" d=" M 1145.53 91.67 C 1157.87 89.97 1170.60 89.82 1182.84 92.45 C 1191.36 94.26 1199.38 99.66 1203.14 107.68 C 1207.93 116.64 1208.99 126.98 1209.49 136.96 C 1209.76 148.43 1209.86 160.10 1207.18 171.32 C 1204.98 180.04 1200.68 189.02 1192.41 193.44 C 1183.17 198.45 1172.25 199.22 1161.93 198.95 C 1151.22 199.22 1139.85 198.17 1130.53 192.41 C 1122.01 186.68 1118.31 176.49 1116.54 166.82 C 1114.79 155.96 1114.77 144.90 1115.30 133.94 C 1116.13 123.26 1117.74 112.00 1124.26 103.14 C 1129.28 96.41 1137.45 92.99 1145.53 91.67 M 1155.20 106.32 C 1151.11 107.16 1147.21 109.20 1144.55 112.45 C 1139.67 118.48 1138.69 126.56 1137.96 134.02 C 1137.70 145.29 1136.93 156.87 1140.17 167.83 C 1141.79 173.39 1144.90 179.02 1150.38 181.56 C 1157.04 184.71 1165.02 184.85 1171.98 182.55 C 1178.12 180.64 1182.40 174.96 1184.17 168.98 C 1187.80 157.98 1187.03 146.26 1186.91 134.87 C 1185.89 126.21 1185.00 116.26 1177.96 110.17 C 1171.62 105.11 1162.82 105.08 1155.20 106.32 Z" />
<path fill="#23b6a4" opacity="1.00" d=" M 541.00 92.00 C 549.99 92.00 558.98 92.00 567.97 92.00 C 576.95 91.91 586.15 92.25 594.73 95.14 C 600.54 97.00 605.67 101.04 608.55 106.45 C 611.55 111.75 611.35 118.06 611.96 123.94 C 612.05 148.79 611.98 173.64 612.00 198.49 C 595.99 198.40 579.99 198.94 563.98 198.75 C 553.32 198.19 541.40 197.48 533.09 189.92 C 526.65 183.04 526.34 172.95 525.56 164.09 C 526.02 157.38 526.31 150.44 529.15 144.23 C 532.52 137.55 540.02 134.46 546.95 133.01 C 556.83 131.06 566.94 130.88 576.98 131.00 C 576.92 135.66 576.95 140.33 576.95 145.00 C 570.74 145.27 564.30 144.10 558.37 146.42 C 553.56 147.68 549.07 151.79 548.90 157.00 C 548.63 160.95 547.87 164.92 548.50 168.88 C 548.92 172.72 548.83 177.17 551.92 180.00 C 556.70 184.60 563.82 184.23 569.97 184.27 C 576.64 184.02 583.32 183.94 590.00 184.00 C 589.99 163.28 590.02 142.56 589.99 121.84 C 589.49 118.10 588.34 114.14 585.45 111.53 C 581.58 107.27 575.59 105.74 570.02 105.76 C 560.35 105.73 550.68 105.76 541.01 105.75 C 540.99 101.17 541.00 96.58 541.00 92.00 Z" />
<path fill="#23b6a4" opacity="1.00" d=" M 624.83 92.03 C 632.75 92.07 640.67 92.05 648.59 92.05 C 657.14 115.70 666.10 139.20 674.50 162.90 C 684.57 139.47 693.73 115.64 703.43 92.05 C 710.35 92.07 717.28 92.03 724.21 92.07 C 702.92 145.46 681.07 198.64 659.60 251.96 C 652.66 251.93 645.72 251.96 638.79 251.94 C 646.33 232.53 654.52 213.37 662.08 193.97 C 662.19 192.36 661.13 191.00 660.70 189.51 C 648.75 157.02 636.71 124.55 624.83 92.03 Z" />
<path fill="#23b6a4" opacity="1.00" d=" M 911.00 92.00 C 927.38 92.49 943.98 90.64 960.17 93.84 C 969.65 95.59 978.61 102.43 980.55 112.23 C 981.17 117.11 981.77 122.01 981.98 126.93 C 982.02 150.79 982.09 174.65 981.73 198.50 C 964.80 198.36 947.87 199.06 930.93 198.66 C 922.97 198.02 914.74 197.21 907.58 193.39 C 903.28 191.06 899.78 187.17 898.37 182.45 C 894.76 170.76 894.36 157.89 898.16 146.20 C 900.34 139.39 907.07 135.56 913.60 133.83 C 924.45 130.88 935.84 130.97 947.00 131.00 C 947.00 135.67 947.00 140.33 947.00 145.00 C 938.75 145.12 929.27 143.74 922.52 149.58 C 918.59 152.53 918.78 157.73 918.16 162.10 C 917.41 166.68 918.50 171.25 919.34 175.73 C 920.73 181.29 926.86 183.76 932.08 184.06 C 941.39 184.67 950.72 183.64 960.05 184.04 C 960.05 164.04 960.05 144.04 960.06 124.04 C 959.79 119.36 958.43 114.39 954.94 111.06 C 951.03 107.21 945.37 105.75 940.02 105.76 C 930.35 105.73 920.67 105.76 911.01 105.75 C 910.99 101.17 911.00 96.58 911.00 92.00 Z" />
<path fill="#23b6a4" opacity="1.00" d=" M 1071.00 92.05 C 1078.33 92.05 1085.66 92.05 1093.00 92.05 C 1093.00 127.62 1093.01 163.18 1092.99 198.75 C 1085.66 198.74 1078.33 198.74 1071.01 198.75 C 1070.99 163.18 1071.00 127.62 1071.00 92.05 Z" />
<path fill="#23b6a4" opacity="1.00" d=" M 1232.51 92.00 C 1249.02 92.04 1265.54 91.92 1282.06 92.06 C 1292.27 92.75 1303.89 93.69 1311.33 101.63 C 1316.05 106.47 1317.51 113.26 1318.00 119.78 L 1318.00 198.70 C 1310.83 198.80 1303.67 198.73 1296.50 198.74 C 1296.28 173.52 1296.22 148.29 1296.21 123.06 C 1296.58 114.03 1288.65 106.63 1279.97 105.96 C 1271.49 105.49 1262.99 105.87 1254.51 105.75 C 1254.48 136.74 1254.49 167.74 1254.50 198.74 C 1247.16 198.75 1239.83 198.76 1232.49 198.73 C 1232.52 163.15 1232.49 127.58 1232.51 92.00 Z" />
</g>
</svg>
